<svg width="200" height="40" viewBox="0 0 200 40" fill="none" xmlns="http://www.w3.org/2000/svg">
  <g fill="#ABB2BD">
    <!-- L -->
    <path d="M5 5H9V30H20V34H5V5Z" />
    <!-- U -->
    <path d="M28 5H32V25C32 27 34 29 37 29C40 29 42 27 42 25V5H46V24C46 29 41 34 37 34C33 34 28 29 28 24V5Z" />
    <!-- M -->
    <path d="M54 34V5H58L64 22L70 5H74V34H70V14L64 31L58 14V34H54Z" />
    <!-- O -->
    <circle cx="92" cy="20" r="14" stroke="#ABB2BD" stroke-width="4"/>
    <!-- S -->
    <path d="M112 12C112 9 115 5 122 5C128 5 132 7 132 11C132 15 128 17 122 18C116 19 112 21 112 25C112 29 117 32 122 32C128 32 132 29 132 25H128C128 27 126 29 122 29C118 29 116 27 116 25C116 23 118 22 122 21C129 20 136 17 136 11C136 6 130 2 122 2C114 2 110 6 110 12H112Z" />
  </g>
</svg>