<svg width="36" height="16" viewBox="0 0 36 16" fill="none" xmlns="http://www.w3.org/2000/svg">
  <rect width="36" height="16" rx="8" fill="url(#paint0_linear_5707_2640)" fill-opacity=".85"/>
  <path d="M18 4.5L18.8 6.9L21 7.6L18.8 8.3L18 10.7L17.2 8.3L15 7.6L17.2 6.9L18 4.5Z" fill="white"/>
  <path d="M24.5 5.5L24.9 6.7L26 7L24.9 7.3L24.5 8.5L24.1 7.3L23 7L24.1 6.7L24.5 5.5Z" fill="white" opacity="0.7"/>
  <path d="M11.5 6.5L11.9 7.7L13 8L11.9 8.3L11.5 9.5L11.1 8.3L10 8L11.1 7.7L11.5 6.5Z" fill="white" opacity="0.7"/>
  <defs>
    <linearGradient id="paint0_linear_5707_2640" y1="8" x2="36" y2="8" gradientUnits="userSpaceOnUse">
      <stop stop-color="#4D6BFE"/>
      <stop offset="1" stop-color="#6948D6"/>
    </linearGradient>
  </defs>
</svg>